<svg xmlns="http://www.w3.org/2000/svg" role="img" viewBox="0 0 24 24" width="96px" height="96px">
<linearGradient id="warning-main-gradient">
    <stop stop-color="#22c55e" offset="0%"></stop>
    <stop stop-color="#f59e0b" offset="100%"></stop>
</linearGradient>
<path fill="url(#warning-main-gradient)" d="M20.5475 3.5475a2.984 2.984 45 00-4.2214-.0014 2.984 2.984 45 00-.8167 1.5592 2.654 2.654 45 012.9812.5289c.7927.7927.9737 1.9721.5459 2.943a2.984 2.984 45 001.5104-.8089A2.984 2.984 45 0020.5475 3.5475zM14.11.8803A2.984 2.984 45 009.89.8803 2.984 2.984 45 009.8893 5.101 2.984 2.984 45 0014.1107 5.101 2.984 2.984 45 0014.11.8803zm8.9803 8.9803a2.984 2.984 45 00-4.2207-.0007 2.984 2.984 45 000 4.2214 2.984 2.984 45 004.2221.0007 2.984 2.984 45 00-.0014-4.2214zm-4.9526-3.8721a2.147 2.147 45 00-3.0356-.0007 2.147 2.147 45 00-.0007 3.0356 2.147 2.147 45 003.0363-0 2.147 2.147 45 00-.0007-3.0356zM14.1722 5.7141a3.497 3.497 45 01-4.2738.0537 2.147 2.147 45 00.6152 1.3124A2.147 2.147 45 0013.5507 7.0823a2.147 2.147 45 00.6223-1.3661zm4.0553 4.1217a2.147 2.147 45 00-1.3074.6159 2.147 2.147 45 00.0007 3.0356 2.147 2.147 45 001.3039.6124 3.494 3.494 45 01.0028-4.2639zM7.7354 3.486A2.984 2.984 45 003.5147 3.4853a2.984 2.984 45 000 4.22 2.984 2.984 45 001.5302.816A2.655 2.655 45 015.5809 5.5514c.7997-.7997 1.9947-.9779 2.9713-.5346a2.984 2.984 45 00-.8167-1.5309zm12.7491 12.7491a2.984 2.984 45 00-1.5507-.8153 2.655 2.655 45 01-.5402 2.9585c-.792.792-1.9707.9737-2.943.5459a2.984 2.984 45 00.8146 1.5316A2.984 2.984 45 0020.4853 20.4558a2.984 2.984 45 00-0-4.22zm-11.5152-10.3301A2.147 2.147 45 005.9344 5.905a2.147 2.147 45 000 3.0349A2.147 2.147 45 008.97 8.9406a2.147 2.147 45 00-.0007-3.0356zm9.0708 9.0849a2.147 2.147 45 00-3.0349 0 2.147 2.147 45 000 3.0349 2.147 2.147 45 003.0356.0007 2.147 2.147 45 00-0-3.0363zM7.1323 10.463a2.147 2.147 45 00-1.3548-.6223 3.496 3.496 45 01-.0156 4.2794 2.147 2.147 45 001.3711-.6215 2.147 2.147 45 00-.0007-3.0356zm6.4064 6.4064a2.147 2.147 45 00-3.0349 0 2.147 2.147 45 00-.6152 1.311 3.495 3.495 45 014.273.0361 2.147 2.147 45 00-.6223-1.3463zm-8.4075-7.0103a2.984 2.984 45 00-4.2207.0007 2.984 2.984 45 00-.0014 4.2214 2.984 2.984 45 004.2221-.0007 2.984 2.984 45 00-0-4.2214zm8.9803 8.9803a2.984 2.984 45 00-4.2214 0 2.984 2.984 45 00-.0007 4.2221 2.984 2.984 45 004.2228-0 2.984 2.984 45 00-.0007-4.2221zm-5.1322-3.8481a2.147 2.147 45 00-3.0356.0007A2.147 2.147 45 005.9429 18.0276a2.147 2.147 45 003.0349-0A2.147 2.147 45 008.9785 14.992zm-.874 4.0814A2.65 2.65 45 015.5887 18.3819a2.65 2.65 45 01-.7269-2.3674 2.734 2.635 45 00-1.3562.7057A2.734 2.635 45 003.5755 20.5167a2.734 2.635 45 003.7965.07 2.734 2.635 45 00.7326-1.5132z"></path>
</svg>