<svg xmlns="http://www.w3.org/2000/svg" role="img" viewBox="0 0 24 24" width="96px" height="96px">
<linearGradient id="success-main-gradient">
    <stop stop-color="#22c55e" offset="0%"></stop>
    <stop stop-color="#f59e0b" offset="100%"></stop>
</linearGradient>
<path fill="url(#success-main-gradient)" d="M12 0c-9.68 0-12 2.32-12 12s2.32 12 12 12S24 21.68 24 12 21.68 0 12 0Zm-2.492 4.84 8.555 3.762C19.502 9.238 20.284 10.46 20.284 12c0 1.54-.781 2.762-2.223 3.398l-8.554 3.762c-.418.172-.953.32-1.418.32-2.125 0-3.617-1.492-3.617-3.617 0-.726.183-1.3.37-1.883.192-.597.387-1.203.387-1.98 0-.77-.195-1.39-.386-1.996-.188-.59-.371-1.168-.371-1.867 0-2.125 1.492-3.617 3.617-3.617.465 0 1 .148 1.418.32ZM16.57 12l-8.406-3.715c.512 1.102.758 2.371.758 3.715 0 1.297-.246 2.613-.758 3.664Z"/>
</svg>